<mxfile host="app.diagrams.net" modified="2023-04-23T07:42:53.955Z" agent="Mozilla/5.0 (X11; Linux x86_64) AppleWebKit/537.36 (KHTML, like Gecko) Chrome/112.0.0.0 Safari/537.36" version="21.2.1" etag="uVbTrbqhNRdGvgoqasU_" type="github">
  <diagram name="Page-1" id="4lXKZ3n5KuIHva3pYwFu">
    <mxGraphModel>
      <root>
        <mxCell id="0" />
        <mxCell id="1" parent="0" />
      </root>
    </mxGraphModel>
  </diagram>
</mxfile>
